<?xml version="1.0" encoding="utf-8"?>
<!-- Generator: Adobe Illustrator 17.0.0, SVG Export Plug-In . SVG Version: 6.00 Build 0)  -->
<!DOCTYPE svg PUBLIC "-//W3C//DTD SVG 1.1//EN" "http://www.w3.org/Graphics/SVG/1.1/DTD/svg11.dtd">
<svg version="1.1" id="Capa_1" xmlns="http://www.w3.org/2000/svg" xmlns:xlink="http://www.w3.org/1999/xlink" x="0px" y="0px"
	 width="600px" height="500px" viewBox="0 0 600 500" enable-background="new 0 0 600 500" xml:space="preserve">
<path fill="#D0742C" d="M151.54,336.076c-0.001,13.01-0.032,26.02,0.052,39.03c0.008,1.187-0.604,1.484-2.933,1.51
	c-9.676,0.109-19.15-0.316-27.976-2.515c-17.143-4.271-27.341-11.162-29.749-20.906c-0.277-1.119-0.297-2.259-0.297-3.39
	c-0.016-22.894-0.013-45.789-0.013-68.683c0-1.668-0.013-1.72,3.123-1.928c16.478-1.093,30.843,1.283,43.111,6.968
	c5.421,2.512,9.849,5.443,13.548,8.667c0.801,0.698,1.16,1.404,1.158,2.218C151.531,310.056,151.54,323.066,151.54,336.076z"/>
<path fill="#D0732C" d="M361.12,270.317c-0.026,7.634-0.073,15.268-0.076,22.902c-0.01,25.36-0.034,50.72,0.044,76.08
	c0.007,2.449-0.499,3.259-2.816,3.207c-33.158-0.748-60.617-30.735-61.781-67.443c-0.248-7.816-0.222-15.627-0.149-23.436
	c0.06-6.488-0.077-12.891-2.244-19.028c0.335-0.291,0.449-0.585,0.355-1.126c-3.112-17.824-9.95-33.592-20.915-47.094
	c-1.963-2.902-4.177-5.526-6.884-7.596c-0.303-0.19-0.564-0.435-0.796-0.72c-3.456-3.878-7.386-7.045-11.69-9.653
	c-2.331-2.214-5.298-3.191-7.849-4.981c-3.594-2.083-7.37-3.62-11.291-4.734c-3.832-1.43-7.514-3.761-11.808-2.328
	c-0.387,0.129-0.79-0.072-1.078-0.437c6.106-4.303,12.771-7.218,19.703-9.263c30.928-9.125,59.202-3.091,84.646,18.682
	c0.708,0.606,1.456,1.154,2.186,1.729c3.645,1.884,6.071,5.354,8.648,8.535c3.577,4.416,6.813,9.165,9.789,14.118
	c3.308,5.759,5.976,11.883,8.381,18.159c1.169,3.904,2.368,7.795,3.512,11.71c1.134,5.182,1.975,10.413,2.467,15.722
	C361.696,265.699,360.963,267.97,361.12,270.317z"/>
<path fill="#87868A" d="M482.271,372.082c-0.016,2.139-1.514,1.249-2.327,1.234c-15.733-0.294-29.535-6.297-41.192-17.994
	c-10.556-10.593-17.332-23.678-19.733-39.401c0.909-0.138,1.039,0.582,1.214,1.312c0.42,1.748,0.798,3.507,1.275,5.253
	c-3.052-9.612-3.321-19.577-3.197-29.608c0.08-6.523,0.071-13.05-0.021-19.574c-0.026-1.815,0.154-3.783-1.145-5.303
	c-0.558-1.221-0.555-2.629-1.049-3.873c-0.969-7.051-2.922-13.778-5.403-20.328c-1.002-4.475-3.619-8.088-5.286-12.208
	c-2.675-5.429-6.026-10.311-9.645-14.997c-5.834-7.554-12.594-13.884-20.147-19.194c-5.412-3.658-10.924-7.08-17.043-9.094
	c-2.091-0.606-3.967-1.968-6.176-2.156c-1.83-0.581-3.767-0.817-5.398-2.046c-0.146-0.211-0.213-0.452-0.202-0.718
	c0.623-0.985,1.753-1.038,2.549-1.708c8.787-4.84,18.088-7.808,27.798-9.077c17.206-2.25,34.04-0.403,49.772,7.936
	c35.674,18.907,54.554,50.513,55.37,94.562c0.576,31.055,0.113,62.134,0.106,93.203c0,1.086-0.08,2.171-0.122,3.257
	c-1.632-0.546-0.983-2.089-0.99-3.182c-0.061-9.907-0.035-19.815-0.035-29.722c0-20.906,0-41.811-0.002-62.717
	c-0.002,30.755-0.009,61.51,0.021,92.264C481.266,369.549,480.726,371.183,482.271,372.082z"/>
<path fill="#D0732C" d="M236.213,324.156c-1.952,8.11-5.625,15.262-10.283,21.74c-12.477,17.35-28.807,26.438-48.731,27.631
	c-1.632,0.098-2.321-0.353-2.318-2.37c0.048-33.143-0.083-66.287,0.101-99.429c0.061-10.939,1.99-21.639,5.465-31.932
	c0.167-0.496,0.46-0.939,0.694-1.407c1.176,2.214-0.617,3.815-0.955,6.268c1.265-4.605,2.709-8.574,4.401-12.434
	c0.52-1.187,0.982-2.507,2.424-2.088c1.286,0.374,1.786,1.675,1.54,3.025c-0.334,1.834,0.319,3.071,1.334,4.398
	c2.771,3.624,4.173,8.165,6.285,12.235c2.921,5.629,5.938,11.186,8.986,16.727c1.319,2.398,2.317,5,3.541,7.466
	c2.437,4.91,5.311,9.531,7.729,14.444c2.564,5.208,5.051,10.475,7.761,15.581c1.845,3.475,3.502,7.085,5.614,10.417
	c1.233,1.945,2.096,3.881,4.444,4.384c0.889,0.19,1.287,1.754,0.768,2.229c-1.909,1.746-0.111,3.34-0.098,4.783
	C234.979,325.077,234.884,324.002,236.213,324.156z"/>
<path fill="#D0742C" d="M152.378,228.807c-1.261-0.002-1.501-0.645-1.959-1.058c-11.568-10.457-25.996-17.065-44.057-18.78
	c-4.358-0.414-8.705-0.335-12.975,0.484c-1.569,0.301-2.026-0.008-2.021-1.215c0.041-10.892,0.025-21.785,0.019-32.677
	c0-0.8,0.003-1.491,1.492-1.52c10.62-0.207,21.142,0.005,30.915,3.768c16.156,6.219,25.947,15.958,28.113,29.704
	C153.017,214.575,152.018,221.691,152.378,228.807z"/>
<path fill="#D0742C" d="M152.378,178.189c-1.261-0.002-1.501-0.645-1.959-1.058c-11.568-10.457-25.996-17.065-44.057-18.78
	c-4.358-0.414-8.705-0.335-12.975,0.484c-1.569,0.301-2.026-0.008-2.021-1.215c0.041-10.892,0.025-21.785,0.019-32.677
	c0-0.8,0.003-1.491,1.492-1.52c10.62-0.207,21.142,0.005,30.915,3.768c16.156,6.219,25.947,15.958,28.113,29.704
	C153.017,163.957,152.018,171.073,152.378,178.189z"/>
<path fill="#D0742C" d="M152.378,279.171c-1.261-0.002-1.501-0.645-1.959-1.058c-11.568-10.457-25.996-17.065-44.057-18.78
	c-4.358-0.414-8.705-0.335-12.975,0.484c-1.569,0.301-2.026-0.008-2.021-1.215c0.041-10.892,0.025-21.785,0.019-32.677
	c0-0.8,0.003-1.491,1.492-1.52c10.62-0.207,21.142,0.005,30.915,3.768c16.156,6.219,25.947,15.958,28.113,29.704
	C153.017,264.939,152.018,272.055,152.378,279.171z"/>
<path fill="#CF712C" d="M236.213,324.156c-0.966,0.383-0.729,1.709-1.62,2.523c-0.096-1.234-0.525-2.131-1.004-3.031
	c-0.155-0.291-1.553-1.543,0.429-1.945c1.044-0.212,1.046-2.202-0.079-2.385c-4.535-0.739-4.971-5.473-6.852-8.595
	c-1.794-2.977-3.799-5.943-4.881-9.416c-1.151-3.695-3.953-6.312-4.906-10.282c-0.672-2.799-2.913-5.106-4.323-7.719
	c-2.708-5.017-5.403-10.034-7.764-15.286c-1.747-3.886-4.098-7.437-6.198-11.124c-1.19-2.09-1.842-4.464-3.199-6.505
	c-2.845-4.28-3.846-9.825-7.428-13.659c-0.72-0.771-0.856-1.825-0.442-3.02c0.45-1.3,0.193-2.792-1.118-3.137
	c-1.16-0.305-1.279,1.134-1.743,2.097c-1.937,4.021-3.241,8.355-5.052,12.451c-0.367-2.429,1.67-4.299,1.11-6.732
	c0,0-0.007,0.049-0.007,0.049c1.584-3.653,2.992-7.394,4.448-11.11c1.112-3.103,2.636-5.943,4.432-8.61
	c0.576,0.644,0.441,1.462,0.07,2.006c-1.517,2.23,0.148,3.638,1.016,5.224c0.619,1.132,1.137,0.654,1.549-0.277
	c0.619-1.4,0.244-2.853,0.244-4.292c0-1.063-0.165-2.35,1.008-2.8c1.194-0.458,1.731,0.65,2.279,1.56
	c0.274,0.454,0.512,1.004,0.937,1.241c2.147,1.197,2.509,3.393,2.69,5.714c0.139,1.778,0.459,3.237,2.299,4.022
	c1.645,0.702,1.767,2.722,1.79,4.458c0.023,1.793,0.408,3.144,2.073,3.869c1.624,0.707,1.902,2.386,1.866,4.084
	c-0.045,2.135,0.022,4.038,2.568,4.295c0.946,0.096,1.271,1.093,1.311,2.046c0.074,1.786,0.805,2.854,2.413,3.242
	c1.477,0.356,1.922,1.512,1.691,3.086c-0.354,2.414,0.407,4.272,2.269,5.571c1.061,0.74,1.444,1.902,1.657,3.195
	c0.373,2.271,0.881,4.448,2.956,5.647c0.506,0.292,0.805,0.916,0.991,1.52c0.369,1.197,1.004,1.999,2.141,2.383
	c1.423,0.479,2.235,1.715,2.058,3.304c-0.333,2.986,0.632,4.853,3.248,5.675c0.29,0.091,0.532,0.409,0.819,0.586
	c0.445,0.272,0.845,0.584,0.874,1.221c-2.53,3.545-2.491,3.878,0.808,6.844c2.966,2.667,3.501,7.046,1.272,10.508
	c-0.765,1.188-1.467,0.92-2.057-0.192c-0.369-0.696-0.448-1.576-1.032-2.136c-0.461-0.442-1.03-0.68-1.573-0.294
	c-0.711,0.506-0.296,1.187,0.046,1.633c2.705,3.52,3.949,8.111,6.845,11.492c0.726,0.848,0.682,1.996,0.644,3.096
	c-0.275,2.706-1.171,5.255-1.596,7.921L236.213,324.156z"/>
<path fill="#CF6F2B" d="M232.707,285.374c-0.21-0.441-0.577-0.535-0.98-0.545c0.046-1.413-0.991-2.207-1.555-3.254
	c-2.241-4.159-4.058-8.562-6.778-12.464c-1.441-2.068-2.269-4.847-3.471-7.272c-2.376-4.795-5-9.41-7.502-14.113
	c-1.084-2.037-1.875-4.318-3.175-6.166c-2.415-3.433-3.333-7.784-5.844-11.142c-1.414-1.89-1.641-4.58-3.026-6.466
	c-2.403-3.273-3.622-7.344-6.02-10.597c0.086-2.282,1.984-3.254,2.909-4.934c0.449-0.815,1.339-1.297,1.553-2.33
	c2-2.873,4.212-5.509,6.88-7.636c0.45,1.96-1.128,2.631-2.005,3.636c-1.102,1.262-0.911,1.802,0.444,2.48
	c2.841,1.422,4.324,4.031,4.799,7.393c0.316,2.238,1.361,4.08,2.928,5.346c0.986,0.797,1.751,1.498,1.987,2.859
	c0.225,1.3,1.631,2.139,1.693,3.215c0.175,3.029,2.158,5.072,2.922,7.739c0.654,2.284,1.676,4.407,3.556,5.667
	c1.655,1.109,2.414,2.695,2.591,4.653c0.248,2.745,1.246,4.717,3.226,6.599c2.314,2.201,4.092,5.167,4.761,8.672
	c0.266,1.397,1.022,2.285,1.909,3.303c1.636,1.877,2.941,4.276,2.974,6.929c0.029,2.283,0.376,4.268,1.508,6.122
	c0.334,0.547,0.454,1.158,0.339,1.823c-0.029,9.52-0.013,19.033-0.004,28.546c0.001,1.544-0.058,3.075-0.299,4.587
	c-0.209,0.6-0.41,1.385-1.098,0.482c-0.499-0.655-0.434-1.535-0.444-2.346c-0.031-2.536,0.021-5.072-0.022-7.607
	c-0.043-2.553-0.58-4.813-2.129-6.936C234.061,289.869,232.709,287.902,232.707,285.374z"/>
<path fill="#CD672C" d="M212.085,192.557c1.867-2.056,4.024-3.646,6.388-4.902c0.046,0.074,0.108,0.221,0.137,0.213
	c3.784-1.022,4.109-0.676,6.228,3.417c2.587,4.996,5.291,9.939,7.773,14.981c2.212,4.493,5.307,8.482,6.607,13.523
	c0.045,0.174,0.051,0.394,0.159,0.508c3.5,3.709,4.268,9.285,7.386,13.292c1.698,2.182,2.574,5.011,3.794,7.56
	c1.183,2.471,2.912,4.581,3.791,7.241c-3.535,2.739-6.598,6.039-9.329,9.731c-0.601,0.574-0.859,1.58-1.78,1.753
	c-3.113-6.464-6.159-12.953-9.699-19.174c-1.836-3.226-3.283-6.857-5.047-10.168c-1.812-3.402-3.508-6.896-5.439-10.228
	c-1.893-3.264-3.248-6.93-5.129-10.118c-2.238-3.791-4.235-7.625-5.898-11.744c-0.698-1.729-1.862-1.108-3.032-0.244
	c-1.668,1.233-1.979,1.06-2.335-0.725l-0.018,0.024c1.155-0.698,2.157-1.599,2.96-2.764l-0.025,0.033
	C210.581,194.267,211.337,193.418,212.085,192.557z"/>
<path fill="#CE6B2C" d="M206.66,197.475c0.786,2.177,1.683,0.471,2.326-0.04c1.761-1.4,3.269-1.035,4.032,1.25
	c1.113,3.333,2.784,6.293,4.354,9.372c3.188,6.252,6.701,12.314,9.594,18.769c0.822,1.835,1.98,3.607,3.026,5.337
	c2.359,3.901,3.748,8.374,6.293,12.158c2.646,3.933,3.797,8.896,6.709,12.684c0.645,0.838-0.531,2.017,0.488,2.733
	c-0.146,2.238-1.726,3.825-2.172,5.956c-0.197,0.942-0.479,1.892-0.716,2.841l0.028-0.046c-1.077,1.611-0.428,3.834-1.551,5.429
	c-1.3-1.778-2.353-3.376-2.173-6.117c0.189-2.874-0.915-5.903-3.39-7.616c-1.94-1.343-1.185-3.785-2.176-5.529
	c-1.476-2.597-2.498-5.419-5.171-7.063c-1.254-0.771-1.91-2.777-2.082-4.448c-0.26-2.521-0.215-4.663-2.933-6.048
	c-1.549-0.79-2.99-3.406-3.234-5.39c-0.28-2.271-1.675-3.235-2.553-4.786c-0.167-0.295-0.613-0.722-0.567-0.791
	c2.167-3.275-2.541-4.293-1.998-7.247c0.096-0.522-2.479-1.308-3.103-3.175c-0.53-1.588-1.286-2.844-1.48-4.777
	c-0.186-1.858-1.489-4.753-4.148-5.431c-0.884-0.226-1.408-1.429-2.499-1.6c1.144-2.184,3.288-3.21,4.135-5.446
	C205.867,197.943,206.158,197.581,206.66,197.475z"/>
<path fill="#CB5F2B" d="M254.349,248.39c-0.542,0.071-1.083,0.141-1.816,0.237c1.34-1.853-0.039-2.699-0.79-4.002
	c-1.758-3.048-3.159-6.348-4.794-9.487c-0.872-1.673-1.863-3.283-2.919-4.821c-2.047-2.981-2.384-6.961-5.168-9.703
	c-1.02-1.005-1.444-3.885-2.414-5.774c-3.283-6.392-6.763-12.654-9.945-19.119c-0.934-1.898-2.086-3.896-3.154-5.8
	c-1.227-2.187-2.126-3.152-4.247-1.469c-1.012,0.803-0.741-0.201-0.629-0.796c1.12-1.2,2.423-2.07,3.882-2.658
	c4.8-2.015,9.004,0.406,13.291,2.209c-0.354,0.784-1.844,0.588-1.617,1.31c0.438,1.395,0.858,3.114,2.029,3.883
	c1.184,0.777,1.164,1.904,1.648,2.981c0.794,1.766,1.251,3.726,2.649,5.275c1.984,2.197,3.662,4.8,5.083,7.504
	c1.377,2.62,2.522,5.508,3.273,8.338c0.746,2.812,2.41,4.262,4.084,5.956c0.818,0.828,1.063,1.904,1.521,2.937
	c1.113,2.51,1.558,5.38,3.267,7.579c1.258,1.619,1.626,3.74,2.364,5.65c0.383,0.992,0.484,2.156,1.289,2.892
	c1.46,1.334,1.056,2.423-0.296,3.435c-2.173,1.232-4.732,1.548-6.621,3.454L254.349,248.39z"/>
<path fill="#87868A" d="M346.939,183.396c1.591,1.343,3.647,1.254,5.378,2.165c2.244,0.46,3.941,2.453,6.261,2.741
	c0.814,0.101,1.206,0.846,1.383,1.705c0.182,0.885,0.226,2.002,0.873,2.493c2.705,2.052,4.306,5.366,6.993,7.402
	c0.831,0.629,1.512,1.381,2.031,2.313c0.519,0.931,1.07,1.831,1.811,2.554c3.394,3.313,6.417,7.11,9.813,10.337
	c2.714,2.58,4.581,6.008,7.635,8.24c1.877,1.372,3.282,3.795,4.612,5.814c2.154,3.27,6.078,4.454,7.422,8.443
	c3.436,1.298,4.686,5.303,7.572,7.463c3.794,2.839,5.609,7.539,6.565,12.521c0.417,2.173,0.772,4.361,1.257,6.519
	c0.495,1.224,0.245,2.678,0.96,3.833c0.086,0.09,0.171,0.18,0.258,0.269c0.395,0.833,0.088,1.851,0.568,2.666
	c0.086,0.269,0.134,0.543,0.146,0.828c-0.038,1.213,0.097,2.408,0.26,3.604c-0.007,9.413-0.069,18.822,0.036,28.229
	c0.034,3.047,0.014,6.128,0.594,9.155c0.18,0.941,0.337,1.993-0.456,2.791c-1.13-3.753-1.182-7.679-1.237-11.549
	c-0.13-9.251-0.006-18.506-0.051-27.759c-0.044-9.163-3.066-16.919-8.982-23.325c-1.473-1.594-3.444-2.353-4.863-3.979
	c-0.459-0.513-0.76-1.28-1.344-1.552c-1.091-0.51-2.821-0.367-1.61-2.635c0.094-0.176-0.568-0.56-0.834-0.899
	c-3.832-4.88-7.935-9.525-12.168-13.909c-4.67-4.837-8.773-10.274-13.561-14.972c-2.328-2.284-5.061-4.325-6.257-7.8
	c-0.032-0.092-0.092-0.193-0.148-0.208c-2.905-0.799-3.699-4.293-6.04-5.838c-2.218-1.464-3.666-3.866-5.26-6.007
	c-2.368-3.181-5.355-5.644-7.746-8.78c-0.86-1.128-2.385-0.404-3.421-1.202C345.44,183.974,345.894,183.346,346.939,183.396z"/>
<path fill="#C85125" d="M254.763,197.024c4.375,2.599,8.36,5.776,11.762,9.818c-0.932,0.779-1.463,0.31-1.877-0.667
	c1.753,4.385,3.964,8.504,6.459,12.422c1.612,2.532,2.506,5.494,4.085,8.02c3.051,4.884,5.159,10.389,8.222,15.269
	c1.112,1.771,1.649,3.934,2.381,5.921c0.586,1.592,1.324,2.798,2.458,3.874c1.113,1.056,2.172,2.209,2.929,3.627
	c0.393,0.736,1.071,1.488,0.283,2.419c-2.7-3.595-5.777-6.726-9.277-9.338c-0.877-0.985-2.069-1.366-3.124-2.013
	c-1.011-0.198-1.96-0.596-2.876-1.102c-0.237-0.054-0.422-0.193-0.557-0.415c-0.828-4.374-2.309-8.439-5.165-11.645
	c-1.089-1.222-1.232-2.741-1.737-4.118c-1.683-4.594-4.99-8.089-6.78-12.546c-2.054-5.116-5.738-9.21-7.197-14.667
	c-0.287-1.073-1.168-1.74-1.63-2.701c-0.307-0.639-0.692-1.308-0.124-1.998C253.524,196.546,254.14,196.614,254.763,197.024z"/>
<path fill="#C64B20" d="M291.465,257.728c-0.322-2.566-2.014-4.174-3.642-5.544c-2.517-2.119-2.986-5.318-4.097-8.182
	c-0.256-0.659-0.412-1.375-0.855-1.896c-2.504-2.945-3.255-7.059-5.495-10.168c-3.135-4.352-4.799-9.66-7.657-14.257
	c-2.359-3.794-5.006-7.74-5.871-12.65c1.117,0.212,1.242,2.304,2.678,1.81c0.165,0.182,0.331,0.364,0.496,0.546
	c2.486,2.326,4.752,4.899,6.879,7.627c4.593,4.495,7.7,10.246,10.809,15.974c5.276,9.718,8.625,20.247,10.512,31.386
	c0.187,1.104,0.204,1.558-0.91,1.291C293.363,261.686,292.414,259.707,291.465,257.728z"/>
<path fill="#87868A" d="M346.841,219.04c-5.169-8.424-11.034-16.172-17.953-22.896c1.261-1.043,2.52-2.087,3.779-3.131
	c-0.086,0.365,0.414,1.306,0.805,1.484c1.147,0.523,1.457,1.91,2.315,2.745c5.693,5.543,10.611,11.963,16.117,17.716
	c5.095,5.323,9.702,11.2,14.854,16.434c3.735,3.794,7.08,7.959,10.484,12.07c1.612,1.947,3.102,0.765,4.695,0.503
	c0.739-0.216,1.473-0.447,2.218-0.639c2.081-0.335,4.171-0.14,6.257-0.177c1.534,0.008,3.079-0.105,4.558,0.501
	c0.896,0.513,2.268,0.282,2.447,1.925c-5.041-0.949-10.06-1.752-15.144-0.105c-2.346,0.76-4.531,1.905-6.788,2.877
	c-1.118,0.621-2.339,1.557-2.352-1.018c-0.002-0.359-0.127-0.742-0.386-0.974c-3.983-3.564-6.883-8.358-10.909-11.869
	c-0.578-0.504-1.237-0.951-1.622-1.636c-2.869-5.109-7.598-8.065-11.333-12.167c-0.517-0.567-1.145-0.978-1.448-1.784
	C347.138,218.111,347.075,219.149,346.841,219.04z"/>
<path fill="#87868A" d="M390.552,243.871c-2.286,0.017-4.573,0.035-6.859,0.052c0.714-2.446-1.201-3.09-2.417-4.02
	c-0.622-0.476-1.34-0.75-1.393-1.638c-0.108-1.808-0.957-2.667-2.481-3.178c-1.22-0.409-2.365-1.099-2.403-2.983
	c-0.026-1.29-1.01-1.942-2.066-2.396c-2.695-1.157-3.851-2.755-4.271-5.768c-0.474,1.129-1.213,1.371-1.868,0.365
	c-0.626-0.962-1.655-1.486-2.105-2.595c-0.546-2.859-1.271-3.596-4.147-4.2c-0.341-0.127-0.59-0.377-0.785-0.705
	c-0.831-1.913-2.344-3.173-3.543-4.732c-2.339-3.041-5.293-5.388-7.479-8.553c-1.15-1.666-3.133-2.462-4.066-3.996
	c-1.782-2.932-4.231-5.008-6.403-7.416c-1.318-1.461-1.544-2.316,0.167-3.387c0.407-0.255,0.789-0.629,1.128-1.021
	c0.986-0.985,2.022-1.873,3.348-2.225c0.192,0.175,0.265,0.403,0.237,0.674c-0.451,1.154-1.567,1.155-2.058,1.6
	c0.542-0.199,1.189,0.043,1.832,0.805c4.441,5.259,9.012,10.389,13.576,15.506c3.931,4.407,7.988,8.719,11.965,13.087
	c2.558,2.81,5.179,5.601,7.645,8.547c2.013,2.405,4.098,4.891,6.52,6.886c1.324,1.09,2.492,2.278,3.315,3.911
	c0.554,1.098,1.315,2.103,2.348,2.712C389.997,240.21,390.745,241.746,390.552,243.871z"/>
<path fill="#CF712C" d="M194.47,213.384c0.564,0.017,1.556-0.021,1.506,0.5c-0.252,2.614,2.206,3.747,2.516,6.249
	c0.176,1.42,2.188,2.621,2.887,4.569c1.056,2.944,2.603,5.698,4.134,8.396c2.338,4.12,4.633,8.335,6.662,12.577
	c1.817,3.799,4.306,7.103,5.924,11.051c1.084,2.645,1.972,5.658,4.2,7.615c0.42,0.369,0.627,0.859,0.641,1.407
	c0.096,3.589,3.039,5.332,4.245,8.171c1.491,3.511,3.106,6.92,5.103,10.106c0.052,0.082-0.364,0.527-0.562,0.803
	c-1.012-0.687-1.772-1.798-3.2-1.733c-1.014,0.047-1.215-1.004-1.211-1.989c0.004-1.181-0.026-2.363,0.002-3.543
	c0.024-1.012-0.343-2.137-1.108-2.2c-2.077-0.173-2.309-2.348-3.395-3.298c-2.706-2.368-3.628-5.244-3.993-8.687
	c-0.017-0.16-0.137-0.376-0.262-0.442c-3.142-1.645-4.115-4.286-3.235-8.012c0.242-1.024-0.819-1.119-1.565-1.19
	c-1.847-0.176-2.863-1.159-2.624-3.362c0.16-1.47-0.331-2.256-1.768-2.09c-1.804,0.207-2.265-0.935-2.161-2.681
	c0.054-0.904-0.004-1.816,0.011-2.725c0.025-1.523-0.412-2.713-1.898-2.999c-1.755-0.338-2.209-1.542-2.039-3.336
	c0.12-1.269,0.038-2.546-0.469-3.729c-0.171-0.398-0.399-1.085-0.614-1.091c-4.125-0.12-2.601-3.992-3.211-6.262
	c-0.347-1.29-0.465-2.304-1.685-2.919c-0.879-0.443-1.596-1.249-1.87-2.393c-0.184-0.77-0.571-1.391-1.376-1.141
	c-0.729,0.226-0.551,1.018-0.557,1.62c-0.02,2.106,0.791,4.276-0.516,6.279c-0.288,0.442-0.445,0.968-0.982,1.089
	c-0.757,0.17-0.891-0.574-1.249-1.038c-0.777-1.006-0.468-2.973-2.318-3.093c-0.415-0.027,0.007-0.76,0.137-1.148
	c0.45-1.348,1.413-2.465,1.445-4c0.097-0.165,0.193-0.329,0.29-0.494c0.43-0.1,0.601-0.634,1.019-0.758
	c0.959-0.304,1.216-1.299,1.664-2.097c0.102-0.195,0.225-0.377,0.358-0.547c0.345-0.373,0.607-0.824,0.891-1.255
	C194.314,213.505,194.392,213.444,194.47,213.384z"/>
<path fill="#87868A" d="M343.004,186.115c-0.031-0.213-0.063-0.426-0.095-0.64l0.03,0.036c0.832-0.206,1.54-1.202,2.516-0.487
	c1.837-0.191,3.657-0.639,4.52,2.123c0.3,0.961,1.71,1.151,2.448,2.065c2.823,3.499,5.696,6.952,8.654,10.309
	c1.418,1.61,3.543,2.441,4.072,5.004c0.238,1.153,1.416,0.105,2.188,1.005c1.582,1.844,2.605,4.113,4.391,5.852
	c3.921,3.819,7.317,8.304,11.43,11.9c0.852,0.745,0.64,1.711,1.169,2.445c1.579,2.19,3.991,3.292,5.539,5.596
	c1.659,2.47,3.851,4.492,5.865,6.6c2.135,2.234,3.612,5.217,6.239,6.71c0.065,1.109-1.343,0.572-1.173,1.463
	c0.112,0.584,0.74,0.505,1.256,0.437c1.63-0.215,1.415,1.311,1.726,2.335c-2.131-1.071-4.078-2.585-6.361-3.294
	c-0.655-0.8-1.599-0.842-2.442-1.148c0.202-1.644-0.56-2.725-1.574-3.811c-9.545-10.227-18.693-20.899-28.201-31.166
	c-3.091-3.337-5.815-7.081-9.022-10.245C351.774,194.859,348.315,189.326,343.004,186.115z"/>
<path fill="#87868A" d="M381.731,244.471c-2.181,1.386-3.861,1.25-5.471-1.326c-1.981-3.17-4.543-6.039-7.052-8.514
	c-3.841-3.791-7.454-7.827-10.996-11.898c-4.594-5.28-9.449-10.266-14.04-15.551c-2.707-3.117-5.11-6.74-8.446-9.142
	c-1.335-0.961-1.422-3.369-3.52-3.445c-0.346-0.012,0.541-0.941,0.462-1.582c0.149-0.131,0.297-0.262,0.446-0.392
	c0.313-0.204,0.657-0.322,0.997-0.449c1.565-0.279,2.663,0.774,3.682,1.779c3.107,3.063,5.906,6.472,8.797,9.779
	c2.341,2.677,4.452,5.686,7.307,7.819c1.894,1.416,2.72,4.107,4.865,5.274c2.291,3.747,5.479,6.643,8.308,9.772
	c3.913,4.326,7.518,9.038,11.794,12.966C380.271,240.853,381.089,242.607,381.731,244.471z"/>
<path fill="#87868A" d="M346.841,219.04c0-0.519,0-1.038,0-1.614c3.391,3.974,7.137,7.376,10.926,10.726
	c0.252,0.222,0.564,0.414,0.722,0.705c2.548,4.703,6.562,7.822,9.993,11.576c1.632,1.785,2.48,4.427,4.862,5.427
	c0.266,0.112,0.559,0.822,0.482,1.153c-0.495,2.134,0.813,1.355,1.659,1.335c-0.988,1.183-2.248,1.929-3.495,2.697
	c-1.191,0.967-2.115,1.238-2.649-0.82c-0.308-1.184-1.564-1.506-2.375-2.208c-2.969-2.572-4.93-6.211-7.791-8.87
	c-1.153-1.072-2.163-2.561-3.979-2.162C352.679,230.848,349.918,224.852,346.841,219.04z"/>
<path fill="#87868A" d="M355.197,236.982c0.651-0.959,0.568-0.726,1.615-0.262c3.105,1.374,4.804,4.323,6.874,6.935
	c1.636,2.064,3.432,4.054,5.764,5.236c0.38,0.192,0.817,0.398,0.7,0.948c-0.569,2.675,1.137,0.98,1.84,1.204
	c-1.496,1.626-2.991,3.253-4.487,4.879c-1.867-0.195-2.595-2.031-3.754-3.239c-1.567-1.632-2.632-4.004-5.128-4.245
	C357.48,244.619,356.339,240.801,355.197,236.982z"/>
<path fill="#87868A" d="M358.691,217.202c-0.526-0.221-1.352-0.278-1.532-0.687c-1.609-3.652-5.363-4.92-7.258-8.44
	c-1.097-2.038-3.439-3.318-4.97-5.382c-2.296-3.094-5.068-5.766-7.746-8.485c-0.791-0.803-1.709-1.748-3.004-1.548
	c0.043-1.759,1.806-1.666,2.433-2.796c0.802-1.025,1.785-1.745,2.947-2.164c-0.41,1.153-1.388,1.722-2.279,2.687
	c2.162,0.976,2.621,4.047,5.326,4.56c0.778,0.147,1.089,2.757,2.085,3.954c0.268,0.322,0.492,0.974,0.748,0.982
	c2.655,0.081,2.967,3.049,4.539,4.422c1.295,1.131,2.102,3.031,3.987,3.269c0.155,0.02,0.445,0.037,0.445,0.052
	c-0.061,4.454,4.901,4.749,5.677,8.495c0.036,0.175,0.049,0.357,0.072,0.535C359.729,217.032,359.222,217.156,358.691,217.202z"/>
<path fill="#87868A" d="M358.621,248.438c0.273-1.647,0.866-0.951,1.626-0.364c2.816,2.172,4.606,5.5,7.256,7.848
	c-1.236,2.381-2.542,4.721-3.688,7.155c-1.228,2.609-1.993,5.419-2.482,8.312c-0.252-7.122-0.811-14.189-2.623-21.068
	C358.555,249.734,358.645,249.068,358.621,248.438z"/>
<path fill="#87868A" d="M418.911,315.481c-0.589-6.76-0.417-13.54-0.432-20.314c-0.015-6.886-0.003-13.772-0.002-20.657
	c-0.56-1.033,0.139-2.28-0.453-3.308c-0.021-0.176-0.03-0.353-0.027-0.531c-0.564-0.826,0.135-1.934-0.495-2.745l0.003,0.013
	c0.08-0.414-0.162-1.065,0.331-1.174c0.478-0.106,0.592,0.494,0.631,0.926c0.187,2.058,0.486,4.118,0.497,6.179
	c0.052,9.786-0.222,19.582,0.111,29.354c0.218,6.388,0.766,12.833,2.811,18.952c0.28,0.839,0.231,1.814,0.152,2.758
	c-1.434-1.992-1.156-4.554-1.943-6.746c-0.292-0.813-0.147-1.836-1.074-2.267C418.9,315.8,418.863,315.653,418.911,315.481z"/>
<path fill="#D0732C" d="M239.071,273.917c0.547-1.799,0.017-3.979,1.551-5.429c-1.931,12.332-0.412,24.788-1.094,37.162
	c-0.349,6.328-1.01,12.618-3.339,18.519c-0.122-2.878,0.863-5.521,1.418-8.255c0.033-2.416-0.291-4.892,0.971-7.1
	C239.652,297.198,238.812,285.548,239.071,273.917z"/>
<path fill="#CD672C" d="M275.857,244.976c0.159,0.016,0.319,0.03,0.479,0.043c0.148,0.133,0.195,0.263,0.142,0.391
	c-0.052,0.126-0.104,0.189-0.155,0.189c-5.062-1.083-10.107-1.657-15.21-0.124c-2.374,0.713-4.499,2.042-6.794,2.926
	c0.82-1.837,2.602-1.875,3.994-2.643c0.778-0.429,1.557-0.858,2.336-1.287c2.865-1.921,6.037-1.215,9.114-1.32
	C271.899,243.322,274.174,242.928,275.857,244.976z"/>
<path fill="#CF712C" d="M191.53,217.747c-0.408,0.159-0.816,0.318-1.224,0.478c2.442-4.388,5.158-8.538,8.513-12.134
	c-0.308,2.376-2.349,3.413-3.321,5.288c-0.345,0.665-1.046,1.1-1.028,2.006c-0.405,0.487-0.492,1.211-0.98,1.636
	C192.749,215.851,192.541,217.156,191.53,217.747z"/>
<path fill="#D0732C" d="M185.583,242.566c-0.899,3.576-2.317,6.922-4.448,9.952C182.106,248.974,183.537,245.633,185.583,242.566z"
	/>
<path fill="#CF6F2B" d="M240.595,268.535c-0.16-3.388,1.698-5.957,2.888-8.797c0.347-0.733,0.813-1.327,1.536-1.617
	C243.545,261.592,242.07,265.064,240.595,268.535z"/>
<path fill="#87868A" d="M345.455,185.024c-0.856,0.051-1.609,0.757-2.515,0.487c1.1-1.312,2.553-1.98,3.977-2.701
	c0.149,0.126,0.201,0.254,0.156,0.386c-0.046,0.133-0.093,0.2-0.142,0.2c0,0,0.008,0.001,0.008,0.001
	C346.257,183.728,345.781,184.291,345.455,185.024z"/>
<path fill="#CE6B2C" d="M209.602,194.735c-0.146,2.036-1.645,2.277-2.96,2.765C207.402,196.277,208.363,195.322,209.602,194.735z"/>
<path fill="#87868A" d="M336.614,189.863c-0.316,1.465-1.932,1.531-2.433,2.796c-0.356-0.013-0.712-0.025-1.068-0.038
	C334.08,191.388,335.206,190.403,336.614,189.863z"/>
<path fill="#C95A2B" d="M279.277,246.107c0.979,0.748,2.403,0.793,2.911,2.283c-1.088-0.307-2.066-0.862-2.949-1.628
	C278.996,246.525,279.009,246.307,279.277,246.107z"/>
<path fill="#CE6B2C" d="M212.085,192.557c-0.277,1.522-1.271,2.036-2.508,2.21C210.184,193.709,211.047,193.01,212.085,192.557z"/>
<path fill="#CB5F2B" d="M279.277,246.107c-0.012,0.218-0.025,0.436-0.037,0.655c-1.036-0.188-2.028-0.516-2.917-1.162
	c0.004-0.193,0.009-0.387,0.013-0.58C277.316,245.381,278.296,245.744,279.277,246.107z"/>
<path fill="#87868A" d="M346.931,183.395c-0.005-0.195-0.009-0.39-0.014-0.586c0.686-0.707,1.491-1.095,2.429-1.132
	C348.832,182.756,347.703,182.766,346.931,183.395z"/>
<path fill="#C95629" d="M275.857,244.976c-1.921-0.68-3.877-1.125-5.905-1.087c-1.361-0.34-2.835,0.019-2.794-2.758
	c0.021-1.431-1.817-3.053-2.754-4.638c-2.633-4.456-4.605-9.322-6.95-13.957c-0.631-1.248-1.021-2.712-1.872-3.79
	c-2.299-2.91-2.533-7.18-5.139-9.789c-2.217-2.22-3.373-5.192-4.408-8.011c-0.97-2.643-1.943-5.068-3.725-7.112
	c-0.444-0.509-0.615-1.294-0.629-2.032c-0.025-1.28,0.385-2.004,1.622-1.252c1.149,0.699,2.454,0.929,3.621,1.563
	c2.614,1.636,5.559,2.616,7.84,4.91c-1.22,0.039-2.405,0.198-1.085,1.914c2.14,2.784,2.608,6.556,4.648,9.42
	c0.838,1.177,1.262,2.728,2.376,3.721c1.364,1.215,1.192,3.239,2.047,4.827c2.219,4.125,4.972,7.871,6.811,12.298
	c1.792,4.314,4.144,8.35,6.383,12.419C276.649,242.907,275.91,243.867,275.857,244.976z"/>
<path fill="#C95A2B" d="M246.923,192.114c-1.258,0.004-2.36-0.602-3.486-1.113c-0.361-0.164-0.728-0.53-1.118-0.192
	c-0.396,0.343-0.207,0.81-0.077,1.242c0.283,0.943,0.519,1.902,1.285,2.556c1.592,1.36,1.974,3.355,2.75,5.272
	c0.887,2.188,1.578,4.757,3.247,6.766c1.847,2.223,4.023,4.447,4.368,7.86c0.142,1.406,1.372,2.196,2.048,3.306
	c2.182,3.581,3.757,7.598,5.571,11.37c1.507,3.134,3.53,6.038,4.657,9.423c0.219,0.659,0.805,0.855,1.254,1.231
	c0.453,0.379,1.211,1.011,0.943,1.443c-1.591,2.565,0.977,1.825,1.587,2.61c-3.11,0.024-6.226-0.081-9.303,0.582
	c0.994-0.844,1.656-1.336,0.056-2.619c-1.566-1.256-1.411-3.888-2.299-5.801c-0.629-1.356-0.807-2.983-2.345-3.578
	c-0.144-0.056-0.392-0.232-0.38-0.269c0.799-2.521-1.724-3.844-1.808-5.732c-0.123-2.745-1.793-3.811-3.221-5.22
	c-1.052-1.037-2.21-1.662-1.98-3.729c0.176-1.585-1.3-2.911-1.908-4.328c-1.117-2.603-1.217-6.17-4.098-7.708
	c-0.813-0.434-0.626-1.626-1.095-2.363c-0.642-1.007-1.022-2.257-2.429-2.397c-0.751-0.075-1.062-0.722-0.761-1.621
	c0.296-0.883,0.551-1.756-0.828-1.827c-0.129-0.007-1.027-1.033-0.65-2.025c0.503-1.325-0.26-1.494-1.175-2.207
	c-1.263-0.985-2.303-2.938-2.595-4.655c-0.228-1.341,1.561-0.964,2.515-1.186c3.377,0.78,6.546,2.203,9.653,3.828
	C245.878,191.337,246.524,191.486,246.923,192.114z"/>
<path fill="#C85125" d="M273.9,215.014c-2.517-2.292-4.781-4.867-6.879-7.627C269.908,209.267,272.181,211.831,273.9,215.014z"/>
<path fill="#87868A" d="M416.544,264.106c-1.308-3.127-1.37-6.635-2.442-9.842c-0.511-1.53-0.922-2.982-2.25-4.031
	c-1.298-1.026-1.136-3.494-2.911-4.187c-3.569-1.393-4.248-6.578-8.1-7.59c-1.151-0.302-0.311-1.635-0.901-2.272
	c-1.041-1.125-2.514-1.786-3.388-2.918c-2.184-2.829-5.19-4.824-6.754-8.288c-0.348-0.772-1.001-1.636-1.689-1.908
	c-2.421-0.959-2.976-3.988-4.895-5.303c-2.795-1.915-3.978-5.732-7.14-7.113c-0.224-0.098-0.598-0.165-0.64-0.33
	c-1.013-3.984-4.632-5.477-6.838-8.284c-1.966-2.502-3.777-5.656-6.671-7.366c-1.391-0.822-2.392-2.188-2.441-4.113
	c-0.022-0.874-0.199-1.854-1.08-1.799c-2.597,0.164-4.019-2.247-6.089-3.201c2.346-0.067,4.262,1.415,6.374,2.19
	c3.654,1.863,7.877,2.756,10.398,6.648c2.164,3.34,4.978,5.971,7.615,8.708c2.748,2.854,4.942,6.313,8.156,8.729
	c1.857,1.395,3.216,3.801,4.704,5.801c2.135,2.87,4.722,5.19,7.091,7.718c2.735,2.918,5.207,6.152,8.207,8.799
	c2.759,2.435,5.037,5.435,6.279,9.227C413.777,250.019,415.921,256.817,416.544,264.106z"/>
<path fill="#87868A" d="M411.14,243.38c-1.306-0.352-1.127-1.832-1.657-2.763c-1.512-2.654-3.816-4.41-5.778-6.552
	c-0.114-0.124-0.321-0.161-0.402-0.299c-2.235-3.77-6.17-5.745-8.245-9.721c-0.543-1.04-2.039-1.025-2.738-2.122
	c-2.163-3.396-5.549-5.597-7.348-9.373c-0.566-1.189-2.195-0.791-2.877-1.879c-2.963-4.728-7.366-7.919-10.637-12.25
	c-3.252-4.307-6.601-8.135-11.586-9.761c-0.436-0.142-0.79-0.598-1.181-0.909c6.225,1.933,11.869,5.196,17.157,9.272
	c1.851,1.866,3.584,3.884,5.375,5.792c2.717,2.895,5.115,6.196,8.201,8.661c0.878,0.701,1.473,1.693,2.107,2.616
	c0.844,1.229,1.591,2.511,3.016,2.992c0.153,0.052,0.321,0.158,0.395,0.308c2.73,5.501,8.509,8.084,10.817,13.986
	C407.775,235.256,410.139,238.94,411.14,243.38z"/>
<path fill="#87868A" d="M405.759,231.379c-1.782-1.711-2.92-4.046-4.662-5.835c-1.077-1.106-2.044-2.254-3.363-3.048
	c-0.757-0.456-1.654-1.215-1.885-2.045c-0.529-1.906-1.274-3.242-3.192-3.553c-1.013-0.164-0.646-1.535-1.203-2.141
	c-1.429-1.555-2.969-2.999-4.294-4.657c-2.365-2.959-5.517-5.038-7.48-8.443c-1.027-1.782-3.112-2.514-3.831-4.634
	c4.809,2.741,8.902,6.602,12.878,10.566c6.444,6.424,11.823,13.89,16.45,22.02C405.472,230.128,405.569,230.786,405.759,231.379z"/>
<path fill="#CF712C" d="M238.579,308.814c0.066,2.433-0.344,4.785-0.971,7.1c-2.565-4.565-5.123-9.135-7.703-13.689
	c-0.449-0.792-1.496-1.328-0.845-2.535c0.395-0.732,1.098-0.628,1.748-0.687c1.192-0.108,1.814,0.624,2.164,1.747
	c0.158,0.506,0.158,1.077,0.337,1.57c0.105,0.288,0.423,0.48,0.645,0.715c0.212-0.251,0.619-0.516,0.605-0.75
	c-0.092-1.502,0.733-2.497,1.383-3.638c0.256-0.449,0.285-1.602,0.041-1.774c-1.72-1.214-1.668-3.83-3.796-4.97
	c-2.91-1.559-2.472-4.988,0.52-6.53c1.418,2.647,2.795,5.323,4.265,7.934c1.922,3.414,0.812,7.182,1.139,10.781
	C238.255,305.665,237.597,307.343,238.579,308.814z"/>
<path fill="#CF712C" d="M219.992,282.679c0.61-1.1,0.074-1.595-0.747-2.112c-1.642-1.034-1.421-3.389-2.613-4.781
	c-1.173-1.369-2.382-2.714-2.667-4.732c-0.13-0.918-0.951-2.038,0.392-2.481c1.268-0.418,2.442,0.256,2.556,1.739
	c0.14,1.821,0.738,2.568,2.384,2.618c1.096,0.033,1.734,0.843,1.656,2.209c-0.062,1.086,0.075,2.19-0.03,3.268
	c-0.163,1.676,0.391,2.632,1.796,3.37c2.351,1.234,3.122,3.996,2.097,6.605c-0.41,1.042-0.874,0.579-1.231,0.028
	c-0.9-1.389-0.72-4.032-3.294-3.43C220.19,284.211,220.091,283.442,219.992,282.679z"/>
<path fill="#CF712C" d="M206.602,251.017c2.283,0.009,2.802,0.768,2.308,3.347c-0.1,0.522-0.137,1.059-0.225,1.585
	c-0.11,0.654,0.333,1.667-0.499,1.863c-0.904,0.213-1.458-0.621-1.748-1.509c-0.331-1.013-0.7-1.98-1.201-2.921
	C204.313,251.649,204.725,251.01,206.602,251.017z"/>
<path fill="#CF712C" d="M210.902,259.75c1.276-0.053,2.558,0.361,2.054,1.834c-0.41,1.197,0.722,2.857-0.695,3.464
	c-0.979,0.42-3.03-2.221-3.093-3.571C209.095,259.942,209.84,259.612,210.902,259.75z"/>
<path fill="#CF712C" d="M225.353,294.646c0.009-0.268-0.041-0.559,0.036-0.8c0.388-1.214,0.359-2.727,1.826-3.191
	c0.543-0.172,1.081,0.023,1.268,0.477c0.589,1.43,0.661,3.18,0.122,4.413c-0.782,1.788-1.842,0.063-2.762-0.354
	C225.57,295.132,225.411,294.945,225.353,294.646z"/>
<path fill="#D0732C" d="M228.526,302.842c0.538,0.669,0.904,0.945,1.037,1.322c0.526,1.487-0.076,2.804-0.646,4.094
	c-0.159,0.36-0.693,0.486-0.815,0.22c-0.543-1.187-0.367-2.421,0.01-3.644C228.268,304.333,228.332,303.799,228.526,302.842z"/>
<path fill="#D0732C" d="M217.646,282.181c-2.253-0.753-1.375-3.26-2.356-4.729c-0.012-0.018,0.412-0.549,0.674-0.608
	c0.436-0.097,0.663,0.225,0.824,0.73C217.256,279.047,217.069,280.66,217.646,282.181z"/>
<path fill="#D0732C" d="M212.603,276.151c0.037-0.884-0.035-1.857,0.908-1.99c0.839-0.119,1.09,0.7,1.01,1.449
	c-0.1,0.948-0.23,2.203-1.272,2.241C212.519,277.877,212.652,276.764,212.603,276.151z"/>
<path fill="#D0732C" d="M224.857,296.978c0.493,0.177,0.867,0.434,0.805,0.954c-0.094,0.782-0.553,1.35-1.26,1.378
	c-0.546,0.022-0.501-0.606-0.484-1.037C223.946,297.565,224.284,297.117,224.857,296.978z"/>
<path fill="#D0732C" d="M206.817,258.758c-0.073,0.629-0.527,0.686-0.859,0.801c-0.439,0.152-0.846-0.113-0.906-0.604
	c-0.05-0.413,0.12-1.046,0.562-0.984C206.044,258.031,206.429,258.486,206.817,258.758z"/>
<path fill="#D0732C" d="M230.453,308.261c0.045-0.52,0.3-0.829,0.742-0.869c0.471-0.043,0.759,0.306,0.813,0.769
	c0.049,0.417-0.283,0.609-0.618,0.621C231.007,308.797,230.573,308.839,230.453,308.261z"/>
<path fill="#D0732C" d="M225.353,294.646c0.163,0.182,0.327,0.364,0.49,0.545c-0.415,0.592-0.891,0.729-1.34,0.097
	c-0.163-0.229-0.15-0.612-0.218-0.925C224.642,294.457,224.997,294.551,225.353,294.646z"/>
<path fill="#87868A" d="M418.024,271.202c0.861,0.982,0.328,2.2,0.453,3.308C417.704,273.512,418.147,272.309,418.024,271.202z"/>
<path fill="#87868A" d="M417.502,267.926c0.846,0.763,0.385,1.818,0.495,2.745C417.291,269.877,417.607,268.854,417.502,267.926z"/>
<path fill="#87868A" d="M343.004,186.115c1.888-0.062,3.252,1.343,4.384,2.567c2.308,2.497,4.467,5.253,6.796,7.663
	c2.565,2.653,4.887,5.533,7.368,8.253c3.531,3.871,7.118,7.678,10.642,11.556c4.329,4.764,8.619,9.572,12.925,14.362
	c3.281,3.65,6.509,7.362,9.872,10.915c1.134,1.198,1.247,2.002-0.016,2.996c-1.407-0.857-2.951-0.352-4.424-0.556
	c-2.304-4.297-5.41-7.821-8.783-11.052c-2.076-1.989-4.524-4.085-5.871-6.27c-1.903-3.085-4.814-4.74-6.721-7.76
	c-1.658-2.627-4.182-4.916-6.475-7.16c-3.838-3.757-7.231-7.997-10.87-11.969c-3.121-3.407-6.177-6.892-9.158-10.45
	c-0.662-0.79-1.251-1.218-2.36-0.98C341.154,187.125,342.072,186.609,343.004,186.115z"/>
<path fill="#87868A" d="M358.691,217.202c0.281-0.879,0.797-0.974,1.471-0.545c0.163,0.182,0.327,0.364,0.49,0.545
	c1.535,1.374,2.928,2.926,4.412,4.363c0.355,1.111,2.121,0.772,2.006,2.441c-0.018,0.259,0.489,0.743,0.964,0.41
	c0.718-0.502-0.563-1.059,0.156-1.734c0.465,1.087,2.213,1.409,1.175,3.21c1.377,0.724,1.614,3.014,3.464,3.101
	c1.512,0.072,2.642,1.271,2.676,2.6c0.068,2.701,1.616,2.891,3.297,3.111c0.578,0.075,0.965,0.296,0.986,0.927
	c0.082,2.442,1.965,3.451,3.162,5.005c0.158,0.205,0.33,0.502,0.531,0.543c3.086,0.639,1.165,1.735,0.213,2.743
	c-0.515,0.798-1.285,0.469-1.962,0.548c-2.599-3.164-5.136-6.397-7.822-9.467c-1.51-1.725-3.657-2.694-4.284-5.436
	c-0.178-0.776-2.073-0.92-2.539-1.783C364.861,223.663,360.632,221.555,358.691,217.202z"/>
<path fill="#87868A" d="M365.064,221.565c-2.215-0.522-3.477-2.238-4.412-4.363C363.367,216.756,365.011,218.381,365.064,221.565z"
	/>
<path fill="#CF6F2B" d="M191.53,217.747c0.465-1.076,0.89-2.189,1.96-2.727C193.08,216.145,193.242,217.78,191.53,217.747z"/>
<path fill="#CF6F2B" d="M193.49,215.02c0.002-0.787,0.329-1.331,0.98-1.636C194.477,214.177,194.486,214.971,193.49,215.02z"/>
</svg>
